<svg display="none" xmlns="http://www.w3.org/2000/svg" width="100%" height="100%">
  <symbol
    id="mastercard"
    class="icon icon--full-color"
    viewBox="0 0 38 24"
    xmlns="http://www.w3.org/2000/svg"
    role="img"
    aria-labelledby="pi-master"
  >
    <title id="pi-master">Mastercard</title>
    <path
      opacity=".07"
      d="M35 0H3C1.3 0 0 1.3 0 3v18c0 1.7 1.4 3 3 3h32c1.7 0 3-1.3 3-3V3c0-1.7-1.4-3-3-3z"
    ></path>
    <path
      fill="#fff"
      d="M35 1c1.1 0 2 .9 2 2v18c0 1.1-.9 2-2 2H3c-1.1 0-2-.9-2-2V3c0-1.1.9-2 2-2h32"
    ></path>
    <circle fill="#EB001B" cx="15" cy="12" r="7"></circle>
    <circle fill="#F79E1B" cx="23" cy="12" r="7"></circle>
    <path
      fill="#FF5F00"
      d="M22 12c0-2.4-1.2-4.5-3-5.7-1.8 1.3-3 3.4-3 5.7s1.2 4.5 3 5.7c1.8-1.2 3-3.3 3-5.7z"
    ></path>
  </symbol>

  <symbol
    id="applepay" class="icon icon--full-color" version="1.1"
    xmlns="http://www.w3.org/2000/svg" role="img"
    x="0" y="0" viewBox="0 0 165.521 105.965" xml:space="preserve"
    aria-labelledby="pi-apple_pay">
    <title id="pi-apple_pay">Apple Pay</title>
    <path fill="#FFF" d="M150.698 3.532l1.672.003c.452.003.905.008 1.36.02.793.022 1.719.065 2.583.22.75.135 1.38.34 1.984.648a6.392 6.392 0 0 1 2.804 2.807c.306.6.51 1.226.645 1.983.154.854.197 1.783.218 2.58.013.45.019.9.02 1.36.005.557.005 1.113.005 1.671v76.318c0 .558 0 1.114-.004 1.682-.002.45-.008.9-.02 1.35-.022.796-.065 1.725-.221 2.589a6.855 6.855 0 0 1-.645 1.975 6.397 6.397 0 0 1-2.808 2.807c-.6.306-1.228.511-1.971.645-.881.157-1.847.2-2.574.22-.457.01-.912.017-1.379.019-.555.004-1.113.004-1.669.004H14.801c-.55 0-1.1 0-1.66-.004a74.993 74.993 0 0 1-1.35-.018c-.744-.02-1.71-.064-2.584-.22a6.938 6.938 0 0 1-1.986-.65 6.337 6.337 0 0 1-1.622-1.18 6.355 6.355 0 0 1-1.178-1.623 6.935 6.935 0 0 1-.646-1.985c-.156-.863-.2-1.788-.22-2.578a66.088 66.088 0 0 1-.02-1.355l-.003-1.327V14.474l.002-1.325a66.7 66.7 0 0 1 .02-1.357c.022-.792.065-1.717.222-2.587a6.924 6.924 0 0 1 .646-1.981c.304-.598.7-1.144 1.18-1.623a6.386 6.386 0 0 1 1.624-1.18 6.96 6.96 0 0 1 1.98-.646c.865-.155 1.792-.198 2.586-.22.452-.012.905-.017 1.354-.02l1.677-.003h135.875"></path><g><g><path fill="#000" d="M43.508 35.77c1.404-1.755 2.356-4.112 2.105-6.52-2.054.102-4.56 1.355-6.012 3.112-1.303 1.504-2.456 3.959-2.156 6.266 2.306.2 4.61-1.152 6.063-2.858"></path>
    <path fill="#000" d="M45.587 39.079c-3.35-.2-6.196 1.9-7.795 1.9-1.6 0-4.049-1.8-6.698-1.751-3.447.05-6.645 2-8.395 5.1-3.598 6.2-.95 15.4 2.55 20.45 1.699 2.5 3.747 5.25 6.445 5.151 2.55-.1 3.549-1.65 6.647-1.65 3.097 0 3.997 1.65 6.696 1.6 2.798-.05 4.548-2.5 6.247-5 1.95-2.85 2.747-5.6 2.797-5.75-.05-.05-5.396-2.101-5.446-8.251-.05-5.15 4.198-7.6 4.398-7.751-2.399-3.548-6.147-3.948-7.447-4.048"></path></g><g><path fill="#000" d="M78.973 32.11c7.278 0 12.347 5.017 12.347 12.321 0 7.33-5.173 12.373-12.529 12.373h-8.058V69.62h-5.822V32.11h14.062zm-8.24 19.807h6.68c5.07 0 7.954-2.729 7.954-7.46 0-4.73-2.885-7.434-7.928-7.434h-6.706v14.894z"></path><path fill="#000" d="M92.764 61.847c0-4.809 3.665-7.564 10.423-7.98l7.252-.442v-2.08c0-3.04-2.001-4.704-5.562-4.704-2.938 0-5.07 1.507-5.51 3.82h-5.252c.157-4.86 4.731-8.395 10.918-8.395 6.654 0 10.995 3.483 10.995 8.89v18.663h-5.38v-4.497h-.13c-1.534 2.937-4.914 4.782-8.579 4.782-5.406 0-9.175-3.222-9.175-8.057zm17.675-2.417v-2.106l-6.472.416c-3.64.234-5.536 1.585-5.536 3.95 0 2.288 1.975 3.77 5.068 3.77 3.95 0 6.94-2.522 6.94-6.03z"></path>
    <path fill="#000" d="M120.975 79.652v-4.496c.364.051 1.247.103 1.715.103 2.573 0 4.029-1.09 4.913-3.899l.52-1.663-9.852-27.293h6.082l6.863 22.146h.13l6.862-22.146h5.927l-10.216 28.67c-2.34 6.577-5.017 8.735-10.683 8.735-.442 0-1.872-.052-2.261-.157z"></path>
  </g>
</g>
  </symbol>

  <symbol
    id="visa" class="icon icon--full-color" viewBox="0 0 38 24"
    xmlns="http://www.w3.org/2000/svg"
    role="img" aria-labelledby="pi-visa">
    <title id="pi-visa">Visa</title>
    <path opacity=".07"
      d="M35 0H3C1.3 0 0 1.3 0 3v18c0 1.7 1.4 3 3 3h32c1.7 0 3-1.3 3-3V3c0-1.7-1.4-3-3-3z"></path>
    <path fill="#fff"
      d="M35 1c1.1 0 2 .9 2 2v18c0 1.1-.9 2-2 2H3c-1.1 0-2-.9-2-2V3c0-1.1.9-2 2-2h32"></path>
    <path
      d="M28.3 10.1H28c-.4 1-.7 1.5-1 3h1.9c-.3-1.5-.3-2.2-.6-3zm2.9 5.9h-1.7c-.1 0-.1 0-.2-.1l-.2-.9-.1-.2h-2.4c-.1 0-.2 0-.2.2l-.3.9c0 .1-.1.1-.1.1h-2.1l.2-.5L27 8.7c0-.5.3-.7.8-.7h1.5c.1 0 .2 0 .2.2l1.4 6.5c.1.4.2.7.2 1.1.1.1.1.1.1.2zm-13.4-.3l.4-1.8c.1 0 .2.1.2.1.7.3 1.4.5 2.1.4.2 0 .5-.1.7-.2.5-.2.5-.7.1-1.1-.2-.2-.5-.3-.8-.5-.4-.2-.8-.4-1.1-.7-1.2-1-.8-2.4-.1-3.1.6-.4.9-.8 1.7-.8 1.2 0 2.5 0 3.1.2h.1c-.1.6-.2 1.1-.4 1.7-.5-.2-1-.4-1.5-.4-.3 0-.6 0-.9.1-.2 0-.3.1-.4.2-.2.2-.2.5 0 .7l.5.4c.4.2.8.4 1.1.6.5.3 1 .8 1.1 1.4.2.9-.1 1.7-.9 2.3-.5.4-.7.6-1.4.6-1.4 0-2.5.1-3.4-.2-.1.2-.1.2-.2.1zm-3.5.3c.1-.7.1-.7.2-1 .5-2.2 1-4.5 1.4-6.7.1-.2.1-.3.3-.3H18c-.2 1.2-.4 2.1-.7 3.2-.3 1.5-.6 3-1 4.5 0 .2-.1.2-.3.2M5 8.2c0-.1.2-.2.3-.2h3.4c.5 0 .9.3 1 .8l.9 4.4c0 .1 0 .1.1.2 0-.1.1-.1.1-.1l2.1-5.1c-.1-.1 0-.2.1-.2h2.1c0 .1 0 .1-.1.2l-3.1 7.3c-.1.2-.1.3-.2.4-.1.1-.3 0-.5 0H9.7c-.1 0-.2 0-.2-.2L7.9 9.5c-.2-.2-.5-.5-.9-.6-.6-.3-1.7-.5-1.9-.5L5 8.2z"
      fill="#142688"></path>
  </symbol>

  <symbol id="googlepay" class="icon icon--full-color"
    xmlns="http://www.w3.org/2000/svg" role="img"
    viewBox="0 0 38 24" aria-labelledby="pi-google_pay">
    <title id="pi-google_pay">Google Pay</title>
    <path d="M35 0H3C1.3 0 0 1.3 0 3v18c0 1.7 1.4 3 3 3h32c1.7 0 3-1.3 3-3V3c0-1.7-1.4-3-3-3z"
      fill="#000" opacity=".07"></path>
    <path d="M35 1c1.1 0 2 .9 2 2v18c0 1.1-.9 2-2 2H3c-1.1 0-2-.9-2-2V3c0-1.1.9-2 2-2h32"
      fill="#FFF"></path>
    <path
      d="M18.093 11.976v3.2h-1.018v-7.9h2.691a2.447 2.447 0 0 1 1.747.692 2.28 2.28 0 0 1 .11 3.224l-.11.116c-.47.447-1.098.69-1.747.674l-1.673-.006zm0-3.732v2.788h1.698c.377.012.741-.135 1.005-.404a1.391 1.391 0 0 0-1.005-2.354l-1.698-.03zm6.484 1.348c.65-.03 1.286.188 1.778.613.445.43.682 1.03.65 1.649v3.334h-.969v-.766h-.049a1.93 1.93 0 0 1-1.673.931 2.17 2.17 0 0 1-1.496-.533 1.667 1.667 0 0 1-.613-1.324 1.606 1.606 0 0 1 .613-1.336 2.746 2.746 0 0 1 1.698-.515c.517-.02 1.03.093 1.49.331v-.208a1.134 1.134 0 0 0-.417-.901 1.416 1.416 0 0 0-.98-.368 1.545 1.545 0 0 0-1.319.717l-.895-.564a2.488 2.488 0 0 1 2.182-1.06zM23.29 13.52a.79.79 0 0 0 .337.662c.223.176.5.269.785.263.429-.001.84-.17 1.146-.472.305-.286.478-.685.478-1.103a2.047 2.047 0 0 0-1.324-.374 1.716 1.716 0 0 0-1.03.294.883.883 0 0 0-.392.73zm9.286-3.75l-3.39 7.79h-1.048l1.281-2.728-2.224-5.062h1.103l1.612 3.885 1.569-3.885h1.097z"
      fill="#5F6368"></path>
    <path
      d="M13.986 11.284c0-.308-.024-.616-.073-.92h-4.29v1.747h2.451a2.096 2.096 0 0 1-.9 1.373v1.134h1.464a4.433 4.433 0 0 0 1.348-3.334z"
      fill="#4285F4"></path>
    <path
      d="M9.629 15.721a4.352 4.352 0 0 0 3.01-1.097l-1.466-1.14a2.752 2.752 0 0 1-4.094-1.44H5.577v1.17a4.53 4.53 0 0 0 4.052 2.507z"
      fill="#34A853"></path>
    <path
      d="M7.079 12.05a2.709 2.709 0 0 1 0-1.735v-1.17H5.577a4.505 4.505 0 0 0 0 4.075l1.502-1.17z"
      fill="#FBBC04"></path>
    <path
      d="M9.629 8.44a2.452 2.452 0 0 1 1.74.68l1.3-1.293a4.37 4.37 0 0 0-3.065-1.183 4.53 4.53 0 0 0-4.027 2.5l1.502 1.171a2.715 2.715 0 0 1 2.55-1.875z"
      fill="#EA4335"></path>
  </symbol>

  <symbol id="paypal" class="icon icon--full-color"
    viewBox="0 0 38 24"
    xmlns="http://www.w3.org/2000/svg"
    role="img" aria-labelledby="pi-paypal">
    <title id="pi-paypal">PayPal</title>
    <path opacity=".07"
      d="M35 0H3C1.3 0 0 1.3 0 3v18c0 1.7 1.4 3 3 3h32c1.7 0 3-1.3 3-3V3c0-1.7-1.4-3-3-3z"></path>
    <path fill="#fff"
      d="M35 1c1.1 0 2 .9 2 2v18c0 1.1-.9 2-2 2H3c-1.1 0-2-.9-2-2V3c0-1.1.9-2 2-2h32"></path>
    <path fill="#003087"
      d="M23.9 8.3c.2-1 0-1.7-.6-2.3-.6-.7-1.7-1-3.1-1h-4.1c-.3 0-.5.2-.6.5L14 15.6c0 .2.1.4.3.4H17l.4-3.4 1.8-2.2 4.7-2.1z"></path>
    <path fill="#3086C8"
      d="M23.9 8.3l-.2.2c-.5 2.8-2.2 3.8-4.6 3.8H18c-.3 0-.5.2-.6.5l-.6 3.9-.2 1c0 .2.1.4.3.4H19c.3 0 .5-.2.5-.4v-.1l.4-2.4v-.1c0-.2.3-.4.5-.4h.3c2.1 0 3.7-.8 4.1-3.2.2-1 .1-1.8-.4-2.4-.1-.5-.3-.7-.5-.8z"></path>
    <path fill="#012169"
      d="M23.3 8.1c-.1-.1-.2-.1-.3-.1-.1 0-.2 0-.3-.1-.3-.1-.7-.1-1.1-.1h-3c-.1 0-.2 0-.2.1-.2.1-.3.2-.3.4l-.7 4.4v.1c0-.3.3-.5.6-.5h1.3c2.5 0 4.1-1 4.6-3.8v-.2c-.1-.1-.3-.2-.5-.2h-.1z"></path>
  </symbol>

  <svg
    id="shoppay"
    xmlns="http://www.w3.org/2000/svg" viewBox="0 0 187 44.36">
    <title>Shop Pay</title>
    <path
      d="M338.52,376c-1.5-3.15-4.35-5.19-8.65-5.19a8.61,8.61,0,0,0-6.76,3.48l-.16.19V362.09a.27.27,0,0,0-.27-.27h-6.07a.27.27,0,0,0-.26.27v35.46a.26.26,0,0,0,.26.26h6.5a.27.27,0,0,0,.27-.26V382.43a4.77,4.77,0,0,1,5.09-5c3.43,0,4.29,2.82,4.29,5.7v14.44a.26.26,0,0,0,.26.26h6.49a.27.27,0,0,0,.27-.26v-15.3a11.36,11.36,0,0,0-.07-1.54A13.53,13.53,0,0,0,338.52,376Z"
      transform="translate(-290.5 -361.82)" fill="#592ff4" />
    <path
      d="M306,381.23s-3.31-.78-4.53-1.09-3.35-1-3.35-2.59,1.72-2.13,3.46-2.13,3.68.42,3.83,2.36a.28.28,0,0,0,.28.25l6.41,0,.11,0,.09-.06a.27.27,0,0,0,.07-.21c-.4-6.19-5.83-8.4-10.84-8.4-5.94,0-10.28,3.92-10.28,8.24,0,3.15.89,6.11,7.9,8.17,1.23.36,2.9.82,4.36,1.23,1.75.49,2.7,1.23,2.7,2.39,0,1.35-2,2.29-3.88,2.29-2.79,0-4.77-1-4.93-2.89a.28.28,0,0,0-.28-.24l-6.4,0-.11,0-.09.06a.28.28,0,0,0-.08.2c.29,5.84,5.94,9,11.2,9,7.84,0,11.38-4.41,11.38-8.54C313.08,387.33,312.64,382.91,306,381.23Z"
      transform="translate(-290.5 -361.82)" fill="#592ff4" />
    <path
      d="M388.52,370.77a10.13,10.13,0,0,0-7.74,4V371a.26.26,0,0,0-.26-.26h-6.08a.26.26,0,0,0-.26.26V405.8a.26.26,0,0,0,.26.26h6.51a.26.26,0,0,0,.26-.26V394.37h.1a9.32,9.32,0,0,0,7.55,3.47c6.94,0,12.73-5.76,12.73-13.54A13.24,13.24,0,0,0,388.52,370.77Zm-.6,20.44a6.9,6.9,0,1,1,6.73-6.91,6.81,6.81,0,0,1-6.73,6.91Z"
      transform="translate(-290.5 -361.82)" fill="#592ff4" />
    <path
      d="M354.91,369.24A18.11,18.11,0,0,0,343.39,373l-.07,0a.6.6,0,0,0-.18.8l2.4,4.13a.61.61,0,0,0,.43.29.59.59,0,0,0,.49-.13l.19-.16c1.25-1,3.25-2.45,8.1-2.83a8.57,8.57,0,0,1,6.75,2.1,10.32,10.32,0,0,1,3,7.53c0,5.47-3.22,8.91-8.4,9-4.27,0-7.13-2.25-7.13-5.53a4.69,4.69,0,0,1,2.33-4,.6.6,0,0,0,.18-.76l-2.15-4.07a.63.63,0,0,0-.38-.3.61.61,0,0,0-.49.06,9.73,9.73,0,0,0-5.23,9.1c.2,6.42,5.53,11.32,12.47,11.52h.82A14.25,14.25,0,0,0,370.74,385C370.74,377.4,365.19,369.24,354.91,369.24Z"
      transform="translate(-290.5 -361.82)" fill="#592ff4" />
    <path
      d="M427.23,373.16H423.1a.37.37,0,0,0-.37.37v8.67a.37.37,0,0,0,.37.36h4.13a4.71,4.71,0,0,0,0-9.4Z"
      transform="translate(-290.5 -361.82)" fill="#592ff4" />
    <path
      d="M439.93,388.51c0,1.26,1.06,2,2.91,2,2.52,0,4-1.36,4-3.78V386l-3.77.2C441.09,386.29,439.93,387.11,439.93,388.51Z"
      transform="translate(-290.5 -361.82)" fill="#592ff4" />
    <path
      d="M470.54,361.9H415a6.94,6.94,0,0,0-6.93,6.94v30.4a6.94,6.94,0,0,0,6.93,6.94h55.54a6.94,6.94,0,0,0,7-6.93v-30.4a6.94,6.94,0,0,0-7-6.95ZM427.44,386h-4.37a.37.37,0,0,0-.37.37v6.22a.37.37,0,0,1-.37.37h-3.07a.37.37,0,0,1-.37-.37V370.13a.37.37,0,0,1,.37-.37h8.18a8.11,8.11,0,0,1,0,16.22Zm23,6.58a.38.38,0,0,1,0,.14.37.37,0,0,1-.2.2l-.14,0h-2.9l-.14,0a.37.37,0,0,1-.2-.2.36.36,0,0,1,0-.14v-.67a.27.27,0,0,0-.17-.28.27.27,0,0,0-.32.09,5.81,5.81,0,0,1-4.52,1.63c-3.31,0-5.5-1.72-5.5-4.7a4.36,4.36,0,0,1,1.82-3.74c1.19-.9,3-1.36,5.79-1.47l2.91-.1v-.85c0-1.72-1.16-2.45-3-2.45s-3,.66-3.3,1.73a.35.35,0,0,1-.13.19.35.35,0,0,1-.22.07H437.3a.36.36,0,0,1-.37-.42c.43-2.55,2.54-4.48,7-4.48,4.77,0,6.49,2.22,6.49,6.45ZM468.55,378l-6.46,17.24c-1.47,4-4,5-6.86,5a5.46,5.46,0,0,1-1.57-.19.38.38,0,0,1-.28-.36v-2.62a.38.38,0,0,1,0-.16.37.37,0,0,1,.41-.21,7.27,7.27,0,0,0,1.35.13,3.48,3.48,0,0,0,3.51-2.48l.19-.6a.36.36,0,0,0,0-.25l-6-15.52a.36.36,0,0,1,0-.17.38.38,0,0,1,.07-.16.36.36,0,0,1,.13-.11.37.37,0,0,1,.17,0h2.94a.38.38,0,0,1,.35.24l4.1,11a.38.38,0,0,0,.71,0l3.56-10.92a.37.37,0,0,1,.35-.25h3a.38.38,0,0,1,.3.15.38.38,0,0,1,.07.16.37.37,0,0,1,0,.17Z"
      transform="translate(-290.5 -361.82)" fill="#592ff4" />
  </svg>
</svg>